<svg width="104" height="153" viewBox="0 0 104 153" fill="none" xmlns="http://www.w3.org/2000/svg">
<path d="M98.5145 15.4978C89.945 11.0956 78.9698 7.26159 68.9628 2.95794C68.6359 2.81514 68.4074 2.71663 68.2805 2.73267C63.6593 0.955314 58.6573 -0.00324179 53.449 8.2373e-06C50.7988 8.2373e-06 48.2946 0.13976 45.9205 0.409512C40.3217 1.04753 35.4436 2.44403 31.2509 4.54822C22.3293 8.22949 12.9855 11.6447 5.48566 15.4978C0.220206 18.2018 -0.26547 23.2546 0.0900017 25.4032C1.04226 31.1798 4.99043 46.3253 5.80294 49.3405C6.49479 51.9145 9.34811 53.8442 12.7917 54.3013C14.7468 64.7656 19.733 73.9855 26.7471 80.6824C30.3305 84.0975 34.4469 86.8556 38.9538 88.7599C43.4576 90.6642 48.3547 91.7115 53.4488 91.7085C59.2507 91.7117 64.7952 90.35 69.8005 87.9157C77.3129 84.2594 83.6163 78.2069 88.0406 70.6753C91.0589 65.5401 93.2078 59.7032 94.271 53.4412C96.2514 52.5463 97.7274 51.0925 98.197 49.3405C99.0095 46.3253 102.958 31.1798 103.91 25.4032C104.266 23.2546 103.78 18.2018 98.5145 15.4978ZM77.7448 73.0968C74.5867 76.7277 70.851 79.6381 66.7442 81.6344C62.6372 83.634 58.1654 84.7258 53.449 84.7258C49.3103 84.7258 45.3556 83.8816 41.6709 82.3263C37.9892 80.7711 34.5773 78.4985 31.5653 75.6294H31.5686C30.7053 74.8106 29.8832 73.9345 29.0928 73.0174C29.1119 73.0365 29.1341 73.0586 29.1564 73.0777C46.8601 63.9687 62.3043 46.4776 61.1871 26.7299C60.6411 17.148 56.3819 10.9843 51.3005 7.02027C52.0051 6.99813 52.7161 6.98208 53.4492 6.98208C58.2448 6.98533 62.7804 7.93434 66.9 9.69565C68.5504 10.4003 70.131 11.2382 71.6386 12.1968C72.9209 15.6944 74.5713 20.4138 76.6152 26.7774C73.7332 45.1986 80.3539 52.6348 87.0287 54.1138C85.4668 61.4582 82.1851 67.9932 77.7448 73.0968Z" fill="white"/>
<path d="M54.2044 62.5279C49.0342 62.5279 44.8415 65.9366 44.8415 70.1452C44.8415 74.3538 49.0342 77.7624 54.2044 77.7624C59.3746 77.7624 63.5673 74.3538 63.5673 70.1452C63.5673 65.9366 59.3746 62.5279 54.2044 62.5279Z" fill="white"/>
<path d="M10.575 145H5.13477V127.371H10.816C12.5261 127.371 13.9895 127.724 15.2061 128.43C16.4227 129.13 17.3552 130.137 18.0037 131.451C18.6521 132.759 18.9764 134.326 18.9764 136.151C18.9764 137.987 18.6493 139.568 17.9951 140.894C17.3409 142.214 16.3882 143.23 15.1372 143.941C13.8862 144.647 12.3655 145 10.575 145ZM7.26955 143.106H10.4373C11.8949 143.106 13.1029 142.825 14.0612 142.263C15.0196 141.7 15.734 140.9 16.2046 139.861C16.6752 138.822 16.9105 137.586 16.9105 136.151C16.9105 134.728 16.678 133.503 16.2132 132.475C15.7484 131.442 15.054 130.651 14.1301 130.1C13.2062 129.543 12.0556 129.265 10.6783 129.265H7.26955V143.106ZM27.6532 145.275C26.4595 145.275 25.4122 144.991 24.5113 144.423C23.616 143.855 22.9159 143.06 22.4109 142.039C21.9117 141.017 21.662 139.824 21.662 138.458C21.662 137.081 21.9117 135.878 22.4109 134.851C22.9159 133.824 23.616 133.026 24.5113 132.458C25.4122 131.89 26.4595 131.606 27.6532 131.606C28.8468 131.606 29.8912 131.89 30.7865 132.458C31.6874 133.026 32.3876 133.824 32.8868 134.851C33.3918 135.878 33.6443 137.081 33.6443 138.458C33.6443 139.824 33.3918 141.017 32.8868 142.039C32.3876 143.06 31.6874 143.855 30.7865 144.423C29.8912 144.991 28.8468 145.275 27.6532 145.275ZM27.6532 143.451C28.5599 143.451 29.3059 143.218 29.8912 142.753C30.4766 142.288 30.9099 141.677 31.191 140.92C31.4722 140.162 31.6128 139.342 31.6128 138.458C31.6128 137.574 31.4722 136.751 31.191 135.987C30.9099 135.224 30.4766 134.607 29.8912 134.137C29.3059 133.666 28.5599 133.431 27.6532 133.431C26.7465 133.431 26.0005 133.666 25.4151 134.137C24.8298 134.607 24.3965 135.224 24.1153 135.987C23.8341 136.751 23.6935 137.574 23.6935 138.458C23.6935 139.342 23.8341 140.162 24.1153 140.92C24.3965 141.677 24.8298 142.288 25.4151 142.753C26.0005 143.218 26.7465 143.451 27.6532 143.451ZM42.0823 150.234C41.101 150.234 40.2574 150.107 39.5515 149.855C38.8457 149.608 38.2575 149.281 37.7869 148.874C37.3221 148.472 36.9519 148.041 36.6765 147.582L38.2948 146.446C38.4784 146.687 38.7108 146.963 38.992 147.272C39.2732 147.588 39.6577 147.861 40.1455 148.09C40.639 148.326 41.2846 148.443 42.0823 148.443C43.1496 148.443 44.0305 148.185 44.7249 147.668C45.4193 147.152 45.7665 146.343 45.7665 145.241V142.555H45.5943C45.4451 142.796 45.2328 143.095 44.9573 143.451C44.6876 143.801 44.2974 144.113 43.7866 144.389C43.2816 144.659 42.5987 144.793 41.7379 144.793C40.6706 144.793 39.7122 144.541 38.8629 144.036C38.0193 143.531 37.3508 142.796 36.8572 141.832C36.3695 140.868 36.1256 139.698 36.1256 138.32C36.1256 136.966 36.3637 135.787 36.84 134.782C37.3163 133.772 37.9791 132.992 38.8285 132.441C39.6778 131.884 40.6591 131.606 41.7724 131.606C42.6332 131.606 43.3161 131.749 43.8211 132.036C44.3318 132.318 44.722 132.639 44.9918 133.001C45.2672 133.356 45.4795 133.649 45.6287 133.879H45.8353V131.778H47.7979V145.379C47.7979 146.515 47.5397 147.439 47.0232 148.151C46.5125 148.868 45.8239 149.393 44.9573 149.726C44.0965 150.064 43.1382 150.234 42.0823 150.234ZM42.0134 142.969C42.8283 142.969 43.5169 142.782 44.0793 142.409C44.6417 142.036 45.0692 141.499 45.3619 140.799C45.6546 140.099 45.8009 139.261 45.8009 138.286C45.8009 137.333 45.6574 136.492 45.3705 135.764C45.0836 135.035 44.6589 134.464 44.0965 134.051C43.5341 133.638 42.8398 133.431 42.0134 133.431C41.1526 133.431 40.4353 133.649 39.8614 134.085C39.2933 134.521 38.8658 135.107 38.5788 135.841C38.2976 136.576 38.157 137.391 38.157 138.286C38.157 139.204 38.3005 140.016 38.5874 140.722C38.8801 141.422 39.3105 141.973 39.8786 142.375C40.4525 142.771 41.1641 142.969 42.0134 142.969ZM59.3326 145H57.0945L63.5677 127.371H65.7714L72.2445 145H70.0065L64.7384 130.16H64.6007L59.3326 145ZM60.159 138.114H69.1801V140.007H60.159V138.114ZM74.715 149.958V131.778H76.6776V133.879H76.9187C77.0679 133.649 77.2744 133.356 77.5384 133.001C77.8081 132.639 78.1926 132.318 78.6919 132.036C79.1969 131.749 79.8798 131.606 80.7406 131.606C81.8539 131.606 82.8352 131.884 83.6845 132.441C84.5338 132.998 85.1966 133.787 85.6729 134.808C86.1492 135.83 86.3874 137.035 86.3874 138.424C86.3874 139.824 86.1492 141.037 85.6729 142.065C85.1966 143.086 84.5367 143.878 83.6931 144.44C82.8495 144.997 81.8768 145.275 80.775 145.275C79.9257 145.275 79.2457 145.135 78.7349 144.854C78.2242 144.567 77.8311 144.243 77.5556 143.881C77.2802 143.514 77.0679 143.21 76.9187 142.969H76.7465V149.958H74.715ZM76.7121 138.389C76.7121 139.388 76.8584 140.268 77.1511 141.032C77.4437 141.789 77.8713 142.383 78.4337 142.814C78.996 143.238 79.6847 143.451 80.4996 143.451C81.3489 143.451 82.0576 143.227 82.6257 142.779C83.1996 142.326 83.63 141.718 83.9169 140.954C84.2096 140.185 84.3559 139.33 84.3559 138.389C84.3559 137.459 84.2125 136.622 83.9255 135.876C83.6443 135.124 83.2168 134.53 82.6429 134.094C82.0748 133.652 81.3604 133.431 80.4996 133.431C79.6732 133.431 78.9788 133.64 78.4164 134.059C77.854 134.472 77.4294 135.052 77.1425 135.798C76.8555 136.538 76.7121 137.402 76.7121 138.389ZM89.4863 149.958V131.778H91.4489V133.879H91.6899C91.8391 133.649 92.0457 133.356 92.3097 133.001C92.5794 132.639 92.9639 132.318 93.4631 132.036C93.9681 131.749 94.651 131.606 95.5118 131.606C96.6251 131.606 97.6064 131.884 98.4558 132.441C99.3051 132.998 99.9679 133.787 100.444 134.808C100.92 135.83 101.159 137.035 101.159 138.424C101.159 139.824 100.92 141.037 100.444 142.065C99.9679 143.086 99.3079 143.878 98.4644 144.44C97.6208 144.997 96.6481 145.275 95.5463 145.275C94.6969 145.275 94.0169 145.135 93.5062 144.854C92.9954 144.567 92.6023 144.243 92.3269 143.881C92.0514 143.514 91.8391 143.21 91.6899 142.969H91.5177V149.958H89.4863ZM91.4833 138.389C91.4833 139.388 91.6296 140.268 91.9223 141.032C92.215 141.789 92.6425 142.383 93.2049 142.814C93.7673 143.238 94.4559 143.451 95.2708 143.451C96.1201 143.451 96.8288 143.227 97.397 142.779C97.9708 142.326 98.4012 141.718 98.6882 140.954C98.9808 140.185 99.1272 139.33 99.1272 138.389C99.1272 137.459 98.9837 136.622 98.6968 135.876C98.4156 135.124 97.9881 134.53 97.4142 134.094C96.8461 133.652 96.1316 133.431 95.2708 133.431C94.4444 133.431 93.7501 133.64 93.1877 134.059C92.6253 134.472 92.2006 135.052 91.9137 135.798C91.6268 136.538 91.4833 137.402 91.4833 138.389Z" fill="white"/>
</svg>
